<svg width="79" height="22" viewBox="0 0 79 22" fill="none" xmlns="http://www.w3.org/2000/svg">
<path d="M72 10H73V13H72V10Z" fill="#015B1D"/>
<path d="M30 10H31V13H30V10Z" fill="#015B1D"/>
<path d="M66 10H67V13H66V10Z" fill="#015B1D"/>
<path d="M74 8H75V10H74V8Z" fill="#015B1D"/>
<path d="M75 10H76V11H75V10Z" fill="#015B1D"/>
<path d="M76 11H77V15H76V11Z" fill="#015B1D"/>
<path d="M77 10H78V11H77V10Z" fill="#015B1D"/>
<path d="M78 8H79V10H78V8Z" fill="#015B1D"/>
<path d="M33 8H36V9H33V8Z" fill="#015B1D"/>
<path d="M36 9H37V10H36V9Z" fill="#015B1D"/>
<path d="M33 14H36V15H33V14Z" fill="#015B1D"/>
<path d="M36 13H37V14H36V13Z" fill="#015B1D"/>
<path d="M38 13H39V14H38V13Z" fill="#015B1D"/>
<path d="M39 14H42V15H39V14Z" fill="#015B1D"/>
<path d="M42 12H43V14H42V12Z" fill="#015B1D"/>
<path d="M39 11H42V12H39V11Z" fill="#015B1D"/>
<path d="M38 9H39V11H38V9Z" fill="#015B1D"/>
<path d="M39 8H42V9H39V8Z" fill="#015B1D"/>
<path d="M42 9H43V10H42V9Z" fill="#015B1D"/>
<path d="M46 12H47V13H46V12Z" fill="#015B1D"/>
<path d="M47 13H48V14H47V13Z" fill="#015B1D"/>
<path d="M48 14H49V15H48V14Z" fill="#015B1D"/>
<path d="M46 10H47V11H46V10Z" fill="#015B1D"/>
<path d="M47 9H48V10H47V9Z" fill="#015B1D"/>
<path d="M48 8H49V9H48V8Z" fill="#015B1D"/>
<path d="M51 8H54V9H51V8Z" fill="#015B1D"/>
<path d="M50 9H51V14H50V9Z" fill="#015B1D"/>
<path d="M51 14H54V15H51V14Z" fill="#015B1D"/>
<path d="M54 12H55V14H54V12Z" fill="#015B1D"/>
<path d="M56 8H57V14H56V8Z" fill="#015B1D"/>
<path d="M57 14H60V15H57V14Z" fill="#015B1D"/>
<path d="M60 8H61V14H60V8Z" fill="#015B1D"/>
<path d="M52 11H54V12H52V11Z" fill="#015B1D"/>
<path d="M54 9H55V11H54V9Z" fill="#015B1D"/>
<path d="M29 9H30V10H29V9Z" fill="#015B1D"/>
<path d="M65 9H66V10H65V9Z" fill="#015B1D"/>
<path d="M71 9H72V10H71V9Z" fill="#015B1D"/>
<path d="M29 13H30V14H29V13Z" fill="#015B1D"/>
<path d="M65 13H66V14H65V13Z" fill="#015B1D"/>
<path d="M71 13H72V14H71V13Z" fill="#015B1D"/>
<path d="M33 9H32V14H33V12H35V11H33V9Z" fill="#015B1D"/>
<path d="M45 8H44V15H45V12H46V11H45V8Z" fill="#015B1D"/>
<path d="M27 14V9H29V8H26V15H29V14H27Z" fill="#015B1D"/>
<path d="M63 14V9H65V8H62V15H65V14H63Z" fill="#015B1D"/>
<path d="M68 8V15H71V14H69V9H71V8H68Z" fill="#015B1D"/>
<path d="M11 0H12V3H11V0Z" fill="#015B1D"/>
<path d="M9.00024 2H10.0002V3H9.00024V2Z" fill="#015B1D"/>
<path d="M8.00024 1H9.00024V2H8.00024V1Z" fill="#015B1D"/>
<path d="M13.0002 2H14.0002V3H13.0002V2Z" fill="#015B1D"/>
<path d="M14.0002 1H15.0002V2H14.0002V1Z" fill="#015B1D"/>
<path d="M19.0002 20H4.00018V21H0V22H23V21H19.0002V20Z" fill="#015B1D"/>
<path d="M4 4H19V5H4V4Z" fill="#015B1D"/>
<path d="M3 5H4L4.00018 20H3V5Z" fill="#015B1D"/>
<path d="M19 5H20V20H19.0002L19 5Z" fill="#015B1D"/>
<path fill-rule="evenodd" clip-rule="evenodd" d="M18 19V6H5.00018L5 19H18ZM6.00018 18H17L17.0002 7H6L6.00018 18Z" fill="#015B1D"/>
<path d="M9.00024 10H10.0002V11H9.00024V10Z" fill="#015B1D"/>
<path d="M13.0002 10H14.0002V11H13.0002V10Z" fill="#015B1D"/>
<path d="M13.0002 13H14.0002V14H13.0002V13Z" fill="#015B1D"/>
<path d="M10 14H13.0002L13 15H10V14Z" fill="#015B1D"/>
<path d="M9.00024 13H10.0002L10 14H9.00024V13Z" fill="#015B1D"/>
</svg>
