<svg width="48" height="48" viewBox="0 0 48 48" fill="none" xmlns="http://www.w3.org/2000/svg">
<rect width="48" height="48" rx="12" fill="#D6FA7E"/>
<path d="M24 7.5H25.5V12H24V7.5Z" fill="#015B1D"/>
<path d="M21.0004 10.5H22.5004V12H21.0004V10.5Z" fill="#015B1D"/>
<path d="M19.5004 9H21.0004V10.5H19.5004V9Z" fill="#015B1D"/>
<path d="M27.0004 10.5H28.5004V12H27.0004V10.5Z" fill="#015B1D"/>
<path d="M28.5004 9H30.0004V10.5H28.5004V9Z" fill="#015B1D"/>
<path d="M36.0003 37.5H13.5003V39H7.5V40.5H42V39H36.0003V37.5Z" fill="#015B1D"/>
<path d="M13.5 13.5H36V15H13.5V13.5Z" fill="#015B1D"/>
<path d="M12 15H13.5L13.5003 37.5H12V15Z" fill="#015B1D"/>
<path d="M36 15H37.5V37.5H36.0003L36 15Z" fill="#015B1D"/>
<path fill-rule="evenodd" clip-rule="evenodd" d="M34.5 36V16.5H15.0003L15 36H34.5ZM16.5003 34.5H33L33.0003 18H16.5L16.5003 34.5Z" fill="#015B1D"/>
<path d="M21.0004 22.5H22.5004V24H21.0004V22.5Z" fill="#015B1D"/>
<path d="M27.0004 22.5H28.5004V24H27.0004V22.5Z" fill="#015B1D"/>
<path d="M27.0004 27H28.5004V28.5H27.0004V27Z" fill="#015B1D"/>
<path d="M22.5 28.5H27.0004L27 30H22.5V28.5Z" fill="#015B1D"/>
<path d="M21.0004 27H22.5004L22.5 28.5H21.0004V27Z" fill="#015B1D"/>
</svg>
